<mxfile host="app.diagrams.net" modified="2023-05-22T05:17:16.491Z" agent="Mozilla/5.0 (Windows NT 10.0; Win64; x64) AppleWebKit/537.36 (KHTML, like Gecko) Chrome/113.0.0.0 Safari/537.36" etag="KJZTwWEaDGJ2z7446cwP" version="21.3.2" type="device">
  <diagram name="페이지-1" id="PujAnWU_G3vuKPYJ0LeJ">
    <mxGraphModel dx="1127" dy="648" grid="1" gridSize="10" guides="1" tooltips="1" connect="1" arrows="1" fold="1" page="1" pageScale="1" pageWidth="4681" pageHeight="3300" math="0" shadow="0">
      <root>
        <mxCell id="0" />
        <mxCell id="1" parent="0" />
        <mxCell id="DL8_u9NJfY6DB9ziZt1C-7" style="edgeStyle=orthogonalEdgeStyle;rounded=0;orthogonalLoop=1;jettySize=auto;html=1;entryX=0;entryY=0.5;entryDx=0;entryDy=0;" edge="1" parent="1" source="DL8_u9NJfY6DB9ziZt1C-2" target="DL8_u9NJfY6DB9ziZt1C-6">
          <mxGeometry relative="1" as="geometry" />
        </mxCell>
        <mxCell id="DL8_u9NJfY6DB9ziZt1C-2" value="관리자(DBA)" style="shape=umlActor;verticalLabelPosition=bottom;verticalAlign=top;html=1;outlineConnect=0;" vertex="1" parent="1">
          <mxGeometry x="540" y="510" width="80" height="140" as="geometry" />
        </mxCell>
        <mxCell id="DL8_u9NJfY6DB9ziZt1C-5" value="Strorage" style="shape=cylinder3;whiteSpace=wrap;html=1;boundedLbl=1;backgroundOutline=1;size=15;" vertex="1" parent="1">
          <mxGeometry x="1090" y="540" width="60" height="80" as="geometry" />
        </mxCell>
        <mxCell id="DL8_u9NJfY6DB9ziZt1C-8" style="edgeStyle=orthogonalEdgeStyle;rounded=0;orthogonalLoop=1;jettySize=auto;html=1;entryX=0;entryY=0.5;entryDx=0;entryDy=0;entryPerimeter=0;" edge="1" parent="1" source="DL8_u9NJfY6DB9ziZt1C-6" target="DL8_u9NJfY6DB9ziZt1C-5">
          <mxGeometry relative="1" as="geometry" />
        </mxCell>
        <mxCell id="DL8_u9NJfY6DB9ziZt1C-35" style="edgeStyle=orthogonalEdgeStyle;rounded=0;orthogonalLoop=1;jettySize=auto;html=1;entryX=0;entryY=0.5;entryDx=0;entryDy=0;" edge="1" parent="1" source="DL8_u9NJfY6DB9ziZt1C-6" target="DL8_u9NJfY6DB9ziZt1C-34">
          <mxGeometry relative="1" as="geometry" />
        </mxCell>
        <mxCell id="DL8_u9NJfY6DB9ziZt1C-6" value="Sys 로그인" style="rounded=1;whiteSpace=wrap;html=1;" vertex="1" parent="1">
          <mxGeometry x="710" y="550" width="120" height="60" as="geometry" />
        </mxCell>
        <mxCell id="DL8_u9NJfY6DB9ziZt1C-22" style="edgeStyle=orthogonalEdgeStyle;rounded=0;orthogonalLoop=1;jettySize=auto;html=1;" edge="1" parent="1" source="DL8_u9NJfY6DB9ziZt1C-9" target="DL8_u9NJfY6DB9ziZt1C-21">
          <mxGeometry relative="1" as="geometry">
            <Array as="points">
              <mxPoint x="960" y="670" />
              <mxPoint x="770" y="670" />
            </Array>
          </mxGeometry>
        </mxCell>
        <mxCell id="DL8_u9NJfY6DB9ziZt1C-9" value="DB,User Create&lt;br&gt;DB,User DROP&lt;br&gt;DB Alter" style="rounded=1;whiteSpace=wrap;html=1;" vertex="1" parent="1">
          <mxGeometry x="900" y="550" width="120" height="60" as="geometry" />
        </mxCell>
        <mxCell id="DL8_u9NJfY6DB9ziZt1C-10" value="DDL&lt;br&gt;(Data Definition Language)" style="text;html=1;strokeColor=none;fillColor=none;align=center;verticalAlign=middle;whiteSpace=wrap;rounded=0;" vertex="1" parent="1">
          <mxGeometry x="865" y="510" width="190" height="30" as="geometry" />
        </mxCell>
        <mxCell id="DL8_u9NJfY6DB9ziZt1C-24" style="edgeStyle=orthogonalEdgeStyle;rounded=0;orthogonalLoop=1;jettySize=auto;html=1;entryX=0;entryY=0.5;entryDx=0;entryDy=0;" edge="1" parent="1" source="DL8_u9NJfY6DB9ziZt1C-21" target="DL8_u9NJfY6DB9ziZt1C-23">
          <mxGeometry relative="1" as="geometry" />
        </mxCell>
        <mxCell id="DL8_u9NJfY6DB9ziZt1C-21" value="User" style="shape=umlActor;verticalLabelPosition=bottom;verticalAlign=top;html=1;outlineConnect=0;" vertex="1" parent="1">
          <mxGeometry x="730" y="770" width="80" height="140" as="geometry" />
        </mxCell>
        <mxCell id="DL8_u9NJfY6DB9ziZt1C-25" style="edgeStyle=orthogonalEdgeStyle;rounded=0;orthogonalLoop=1;jettySize=auto;html=1;entryX=0.5;entryY=1;entryDx=0;entryDy=0;entryPerimeter=0;" edge="1" parent="1" source="DL8_u9NJfY6DB9ziZt1C-23" target="DL8_u9NJfY6DB9ziZt1C-5">
          <mxGeometry relative="1" as="geometry" />
        </mxCell>
        <mxCell id="DL8_u9NJfY6DB9ziZt1C-23" value="User 로그인" style="rounded=1;whiteSpace=wrap;html=1;" vertex="1" parent="1">
          <mxGeometry x="865" y="810" width="85" height="30" as="geometry" />
        </mxCell>
        <mxCell id="DL8_u9NJfY6DB9ziZt1C-26" value="CREATE : INSERT&lt;br&gt;READ:SELECT&lt;br&gt;UPDATE:UPDATE&lt;br&gt;DELETE:DELETE&lt;br&gt;" style="rounded=1;whiteSpace=wrap;html=1;" vertex="1" parent="1">
          <mxGeometry x="1030" y="790" width="140" height="60" as="geometry" />
        </mxCell>
        <mxCell id="DL8_u9NJfY6DB9ziZt1C-28" value="DML&lt;br&gt;(Data Manupulation Language)" style="text;html=1;strokeColor=none;fillColor=none;align=center;verticalAlign=middle;whiteSpace=wrap;rounded=0;" vertex="1" parent="1">
          <mxGeometry x="1010" y="860" width="180" height="30" as="geometry" />
        </mxCell>
        <mxCell id="DL8_u9NJfY6DB9ziZt1C-36" style="edgeStyle=orthogonalEdgeStyle;rounded=0;orthogonalLoop=1;jettySize=auto;html=1;" edge="1" parent="1" source="DL8_u9NJfY6DB9ziZt1C-34" target="DL8_u9NJfY6DB9ziZt1C-5">
          <mxGeometry relative="1" as="geometry" />
        </mxCell>
        <mxCell id="DL8_u9NJfY6DB9ziZt1C-34" value="GRANT, REVOKE&lt;br&gt;COMMIT,&amp;nbsp;ROLL BACK" style="rounded=1;whiteSpace=wrap;html=1;" vertex="1" parent="1">
          <mxGeometry x="875" y="410" width="170" height="60" as="geometry" />
        </mxCell>
        <mxCell id="DL8_u9NJfY6DB9ziZt1C-37" value="DCL&lt;br&gt;(Data Controll Language)" style="text;html=1;strokeColor=none;fillColor=none;align=center;verticalAlign=middle;whiteSpace=wrap;rounded=0;" vertex="1" parent="1">
          <mxGeometry x="902.5" y="370" width="165" height="30" as="geometry" />
        </mxCell>
      </root>
    </mxGraphModel>
  </diagram>
</mxfile>
